<?xml version="1.0" encoding="utf-8"?>
<!-- Generator: Adobe Illustrator 16.0.0, SVG Export Plug-In . SVG Version: 6.00 Build 0)  -->
<!DOCTYPE svg PUBLIC "-//W3C//DTD SVG 1.1//EN" "http://www.w3.org/Graphics/SVG/1.1/DTD/svg11.dtd">
<svg version="1.1" xmlns="http://www.w3.org/2000/svg" xmlns:xlink="http://www.w3.org/1999/xlink" x="0px" y="0px" width="624px"
	 height="624px" viewBox="0 0 624 624" enable-background="new 0 0 624 624" xml:space="preserve">
<g id="Master_Layer_7">
	<path fill-rule="evenodd" clip-rule="evenodd" d="M312.5,0.5L312.5,0.5c171.601,0,312,140.4,312,312l0,0
		c0,171.6-140.399,312-312,312l0,0c-171.6,0-312-140.4-312-312l0,0C0.5,140.9,140.9,0.5,312.5,0.5L312.5,0.5z M312.5,35.06
		c-152.592,0-277.44,124.848-277.44,277.44v0c0,152.592,124.848,277.44,277.44,277.44h0c152.592,0,277.44-124.849,277.44-277.44v0
		C589.94,159.908,465.093,35.06,312.5,35.06L312.5,35.06z"/>
</g>
<g id="Layer_1">
	<g>
		<path d="M353.979,272.637v182.705c0,11.412-4.665,21.783-12.18,29.299c-7.515,7.515-17.886,12.18-29.298,12.18h0
			c-11.413,0-21.784-4.665-29.299-12.18c-7.515-7.516-12.18-17.887-12.18-29.299V272.637c0-11.413,4.665-21.784,12.18-29.298
			c7.515-7.515,17.886-12.18,29.299-12.18h0c11.413,0,21.784,4.665,29.298,12.18C349.313,250.853,353.979,261.224,353.979,272.637z"
			/>
		<path d="M312.5,128.18c11.765,0,22.417,4.77,30.127,12.479c7.71,7.71,12.479,18.362,12.479,30.127s-4.77,22.417-12.479,30.127
			c-7.71,7.71-18.362,12.479-30.127,12.479s-22.417-4.77-30.127-12.479c-7.71-7.71-12.479-18.362-12.479-30.127
			s4.77-22.417,12.479-30.127C290.083,132.949,300.735,128.18,312.5,128.18z"/>
	</g>
</g>
</svg>
